# xmcd
#
# Track frame offsets:
#	150
#	24905
#	48982
#	69975
#	92652
#	114110
#	134445
#	154632
#	174012
#	195705
#	218805
#	240885
#	255792
#
# Disc length: 3769
#
# Revision: 9
# Processed by: cddbd v1.5.1PL0 Copyright (c) Steve Scherf et al.
# Submitted via: ExactAudioCopy v0.95a5
# Normalized: r8:DSETVAR1
#
DISCID=910eb70d
DTITLE=Various Artist - Tropical Tribute To The Beatles
DYEAR=1996
DGENRE=Salsa
TTITLE0=Tony Vega - Hey Jude
TTITLE1=Tito Nieves and Tito Puente - Let It Be
TTITLE2=Guianko - Can't Buy Me Love
TTITLE3=Johnny Rivera - A Hard Day's Night
TTITLE4=Celia Cruz - Obladi, Oblada
TTITLE5=Ray Sepulveda - Fool On The Hill
TTITLE6=Manny Manuel - I Want To Hold Your Hand
TTITLE7=Domingo Quinones - Day Tripper
TTITLE8=Oscar D'Leon - Lady Madonna
TTITLE9=Jesus Enriquez and Miles Peña - With A Little Help From My Friends
TTITLE10=Cheo Feliciano - Yesterday
TTITLE11=Jose Alberto 'El Canario' - And I Love Her
TTITLE12=All artists - Come Together
EXTD=YEAR: 1996
EXTT0=
EXTT1=
EXTT2=
EXTT3=
EXTT4=
EXTT5=
EXTT6=
EXTT7=
EXTT8=
EXTT9=
EXTT10=
EXTT11=
EXTT12=
PLAYORDER=
